<?xml version="1.0" encoding="UTF-8" standalone="no"?>
<!DOCTYPE svg PUBLIC "-//W3C//DTD SVG 1.1//EN" "http://www.w3.org/Graphics/SVG/1.1/DTD/svg11.dtd">
<!-- Created with Vectornator (http://vectornator.io/) -->
<svg height="100%" stroke-miterlimit="10" style="fill-rule:nonzero;clip-rule:evenodd;stroke-linecap:round;stroke-linejoin:round;" version="1.1" viewBox="0 0 195.821 180.481" width="100%" xml:space="preserve" xmlns="http://www.w3.org/2000/svg" xmlns:vectornator="http://vectornator.io" xmlns:xlink="http://www.w3.org/1999/xlink">
<defs>
<filter color-interpolation-filters="sRGB" filterUnits="userSpaceOnUse" height="158.231" id="Filter" width="166.75" x="14.8864" y="-2.5">
<feDropShadow dx="-3.67321e-05" dy="10" flood-color="#000000" flood-opacity="0.333" in="SourceGraphic" result="Shadow" stdDeviation="5"/>
</filter>
</defs>
<path d="M0 0L195.821 0L195.821 180.481L0 180.481L0 0Z" fill="#343638" fill-rule="nonzero" opacity="1" stroke="none"/>
<clipPath id="ArtboardFrame">
<rect height="180.481" width="195.821" x="0" y="0"/>
</clipPath>
<g clip-path="url(#ArtboardFrame)" id="layer1" vectornator:layerName="layer1">
<g filter="url(#Filter)" vectornator:layerName="Group 1" vectornator:shadowAngle="1.5708" vectornator:shadowColor="#000000" vectornator:shadowOffset="10" vectornator:shadowOpacity="0.333" vectornator:shadowRadius="10">
<path d="M67.8443 113.941C67.8443 112.41 67.9834 111.169 68.1551 111.169C68.3267 111.169 68.4659 112.41 68.4659 113.941C68.4659 115.471 68.3267 116.712 68.1551 116.712C67.9834 116.712 67.8443 115.471 67.8443 113.941Z" fill="#999999" fill-rule="nonzero" opacity="0.5" stroke="#1a1a1a" stroke-linecap="round" stroke-linejoin="miter" stroke-width="2.00025" vectornator:layerName="ellipse"/>
<path d="M123.673 121.254L134.438 115.852L134.438 103.834L123.673 109.236L123.673 121.254ZM123.673 107.944L134.438 102.543L134.438 90.5256L123.673 95.9268L123.673 107.944ZM109.848 64.0851L99.0201 58.687L88.2552 64.0883L99.0826 69.4864L109.848 64.0851ZM97.9137 70.0737L87.0853 64.6755L76.3202 70.0769L87.1486 75.475L97.9137 70.0737ZM111.103 75.479L121.868 70.0769L111.032 64.6755L100.267 70.0769L111.103 75.479ZM88.3332 76.0654L99.1688 81.4675L109.934 76.0654L99.0983 70.6641L88.3332 76.0654ZM123.046 70.6641L112.281 76.0654L123.116 81.4668L133.881 76.0654L123.046 70.6641ZM75.1479 70.6641L64.3828 76.0654L75.2112 81.4635L85.9763 76.0623L75.1479 70.6641ZM87.1603 76.6527L76.3952 82.054L87.2306 87.4562L97.9957 82.054L87.1603 76.6527ZM99.8037 133.231L110.569 127.829L110.569 115.812L99.8037 121.214L99.8037 133.231ZM99.8037 119.921L110.569 114.52L110.569 102.503L99.8037 107.904L99.8037 119.921ZM99.1757 82.6414L88.4107 88.0425L99.2462 93.4439L110.011 88.0425L99.1757 82.6414ZM63.7587 115.852L74.5871 121.25L74.5871 109.233L63.7587 103.835L63.7587 115.852ZM63.7587 102.543L74.5871 107.941L74.5871 95.9237L63.7587 90.5256L63.7587 102.543ZM63.7587 89.1734L74.5871 94.5716L74.5871 82.5545L63.7587 77.1563L63.7587 89.1734ZM75.7719 121.841L86.6073 127.242L86.6073 115.225L75.7719 109.824L75.7719 121.841ZM75.7719 108.531L86.6073 113.933L86.6073 101.915L75.7719 96.514L75.7719 108.531ZM75.7719 95.1619L86.6073 100.563L86.6073 88.5462L75.7719 83.145L75.7719 95.1619ZM87.7843 127.829L98.6197 133.231L98.6197 121.214L87.7843 115.812L87.7843 127.829ZM87.7843 114.52L98.6197 119.921L98.6197 107.904L87.7843 102.503L87.7843 114.52ZM87.7843 101.151L98.6197 106.552L98.6197 94.5348L87.7843 89.1335L87.7843 101.151ZM111.738 127.242L122.503 121.841L122.503 109.823L111.738 115.225L111.738 127.242ZM111.738 113.932L122.503 108.531L122.503 96.514L111.738 101.915L111.738 113.932ZM111.111 76.6527L100.346 82.054L111.181 87.4552L121.946 82.054L111.111 76.6527ZM123.673 82.7352L123.673 94.7522L134.438 89.351L134.438 77.3338L123.673 82.7352ZM99.8037 106.552L110.569 101.151L110.569 89.1335L99.8037 94.5348L99.8037 106.552ZM111.738 100.741L122.503 95.3395L122.503 83.3225L111.738 88.7237L111.738 100.741Z" fill="#70bf4f" fill-rule="nonzero" opacity="1" stroke="none" vectornator:layerName="path"/>
<path d="M87.3005 64.5612L98.0656 59.1598L98.0656 47.1419L87.3005 52.544L87.3005 64.5612ZM87.3005 51.2515L98.0656 45.8501L98.0656 33.8331L87.3005 39.2343L87.3005 51.2515ZM73.4754 7.39269L62.6478 1.99452L51.8829 7.39588L62.7104 12.7939L73.4754 7.39269ZM61.5414 13.3812L50.713 7.98302L39.9479 13.3844L50.7763 18.7826L61.5414 13.3812ZM74.7305 18.7866L85.4956 13.3844L74.6602 7.98302L63.8951 13.3844L74.7305 18.7866ZM51.9609 19.3729L62.7965 24.7751L73.5616 19.3729L62.726 13.9717L51.9609 19.3729ZM86.6734 13.9717L75.9083 19.3729L86.7437 24.7743L97.5088 19.3729L86.6734 13.9717ZM38.7756 13.9717L28.0105 19.3729L38.8389 24.7711L49.604 19.3699L38.7756 13.9717ZM50.788 19.9602L40.0229 25.3616L50.8583 30.7637L61.6234 25.3616L50.788 19.9602ZM63.4315 76.5384L74.1966 71.137L74.1966 59.12L63.4315 64.5212L63.4315 76.5384ZM63.4315 63.2287L74.1966 57.8272L74.1966 45.8103L63.4315 51.2115L63.4315 63.2287ZM62.8035 25.9489L52.0384 31.3501L62.874 36.7515L73.6389 31.3501L62.8035 25.9489ZM27.3864 59.1598L38.2148 64.558L38.2148 52.541L27.3864 47.1428L27.3864 59.1598ZM27.3864 45.8501L38.2148 51.2482L38.2148 39.2313L27.3864 33.8331L27.3864 45.8501ZM27.3864 32.4809L38.2148 37.8792L38.2148 25.862L27.3864 20.4638L27.3864 32.4809ZM39.3996 65.1485L50.235 70.5497L50.235 58.5327L39.3996 53.1313L39.3996 65.1485ZM39.3996 51.8388L50.235 57.2407L50.235 45.223L39.3996 39.8216L39.3996 51.8388ZM39.3996 38.4695L50.235 43.8709L50.235 31.8537L39.3996 26.4525L39.3996 38.4695ZM51.4121 71.137L62.2475 76.5384L62.2475 64.5212L51.4121 59.12L51.4121 71.137ZM51.4121 57.8272L62.2475 63.2287L62.2475 51.2115L51.4121 45.8103L51.4121 57.8272ZM51.4121 44.4581L62.2475 49.8593L62.2475 37.8424L51.4121 32.441L51.4121 44.4581ZM75.3657 70.5497L86.1306 65.1485L86.1306 53.1306L75.3657 58.5327L75.3657 70.5497ZM75.3657 57.24L86.1306 51.8388L86.1306 39.8216L75.3657 45.223L75.3657 57.24ZM74.7384 19.9602L63.9733 25.3616L74.8087 30.7628L85.5738 25.3616L74.7384 19.9602ZM87.3005 26.0428L87.3005 38.0597L98.0656 32.6585L98.0656 20.6414L87.3005 26.0428ZM63.4315 49.8593L74.1966 44.4581L74.1966 32.441L63.4315 37.8424L63.4315 49.8593ZM75.3657 44.0484L86.1306 38.647L86.1306 26.63L75.3657 32.0313L75.3657 44.0484Z" fill="#ff7e27" fill-rule="nonzero" opacity="1" stroke="none" vectornator:layerName="path"/>
<path d="M76.4965 56.2878C76.4965 44.5773 85.9897 35.0841 97.7002 35.0841C109.411 35.0841 118.904 44.5773 118.904 56.2878C118.904 67.9983 109.411 77.4916 97.7002 77.4916C85.9897 77.4916 76.4965 67.9983 76.4965 56.2878Z" fill="#ec0014" fill-rule="nonzero" opacity="1" stroke="#ffffff" stroke-linecap="round" stroke-linejoin="miter" stroke-width="5" vectornator:layerName="Oval 1"/>
<path d="M158.371 62.5667L169.136 57.1653L169.136 45.1474L158.371 50.5496L158.371 62.5667ZM158.371 49.257L169.136 43.8556L169.136 31.8386L158.371 37.2398L158.371 49.257ZM144.546 5.39819L133.719 0L122.954 5.4014L133.781 10.7994L144.546 5.39819ZM132.612 11.3867L121.784 5.98851L111.019 11.3899L121.847 16.7881L132.612 11.3867ZM145.801 16.7921L156.566 11.3899L145.731 5.98851L134.966 11.3899L145.801 16.7921ZM123.032 17.3784L133.867 22.7806L144.632 17.3784L133.797 11.9772L123.032 17.3784ZM157.744 11.9772L146.979 17.3784L157.815 22.7798L168.58 17.3784L157.744 11.9772ZM109.846 11.9772L99.0814 17.3784L109.91 22.7766L120.675 17.3754L109.846 11.9772ZM121.859 17.9657L111.094 23.3671L121.929 28.7693L132.694 23.3671L121.859 17.9657ZM134.502 74.5439L145.267 69.1425L145.267 57.1255L134.502 62.5267L134.502 74.5439ZM134.502 61.2342L145.267 55.8328L145.267 43.8158L134.502 49.217L134.502 61.2342ZM133.874 23.9544L123.109 29.3556L133.945 34.757L144.71 29.3556L133.874 23.9544ZM98.4573 57.1653L109.286 62.5635L109.286 50.5465L98.4573 45.1483L98.4573 57.1653ZM98.4573 43.8556L109.286 49.2538L109.286 37.2368L98.4573 31.8386L98.4573 43.8556ZM98.4573 30.4865L109.286 35.8847L109.286 23.8675L98.4573 18.4693L98.4573 30.4865ZM110.471 63.154L121.306 68.5552L121.306 56.5383L110.471 51.1369L110.471 63.154ZM110.471 49.8443L121.306 55.2462L121.306 43.2285L110.471 37.8271L110.471 49.8443ZM110.471 36.475L121.306 41.8764L121.306 29.8592L110.471 24.458L110.471 36.475ZM122.483 69.1425L133.318 74.5439L133.318 62.5267L122.483 57.1255L122.483 69.1425ZM122.483 55.8328L133.318 61.2342L133.318 49.217L122.483 43.8158L122.483 55.8328ZM122.483 42.4637L133.318 47.8649L133.318 35.8479L122.483 30.4465L122.483 42.4637ZM146.437 68.5552L157.201 63.154L157.201 51.1361L146.437 56.5383L146.437 68.5552ZM146.437 55.2455L157.201 49.8443L157.201 37.8271L146.437 43.2285L146.437 55.2455ZM145.809 17.9657L135.044 23.3671L145.88 28.7683L156.645 23.3671L145.809 17.9657ZM158.371 24.0483L158.371 36.0652L169.136 30.664L169.136 18.6469L158.371 24.0483ZM134.502 47.8649L145.267 42.4637L145.267 30.4465L134.502 35.8479L134.502 47.8649ZM146.437 42.0539L157.201 36.6525L157.201 24.6355L146.437 30.0368L146.437 42.0539Z" fill="#1991e8" fill-rule="nonzero" opacity="1" stroke="none" vectornator:layerName="path"/>
</g>
<text fill="#c0cad8" font-family="Helvetica-Light" font-size="11" opacity="1" stroke="none" text-anchor="start" transform="matrix(1 0 0 1 46.7286 156.573)" vectornator:layerName="Text 1" vectornator:width="106.417" x="0" y="0">
<tspan textLength="46.116" x="0" y="11">extpkgs</tspan>
<tspan fill="#50d5ee" textLength="57.301" x="46.116" y="11">/lapack95</tspan>
<tspan fill="#ff7e27" textLength="1" x="103.417" y="11">
</tspan>
</text>
<text fill="#ff7e27" font-family="Helvetica-Bold" font-size="24" opacity="1" stroke="none" text-anchor="start" transform="matrix(1 0 0 1 44.4235 133.573)" vectornator:layerName="Text 2" vectornator:width="109.676" x="0" y="0">
<tspan font-weight="bold" textLength="106.676" x="0" y="23">EASIFEM</tspan>
</text>
</g>
</svg>
